<svg width="36" height="37" viewBox="0 0 36 37" fill="none" xmlns="http://www.w3.org/2000/svg">
<path d="M1.83178 0.445312H5.11371L7.25079 7.77343H7.47976L9.54051 0.445312H12.8224L9.00624 11.1731V18.7278H5.72431V11.4753L1.83178 0.445312ZM13.0514 8.30226C13.0514 7.24459 13.4585 6.41357 14.2726 5.80919C15.0358 5.20481 16.0789 4.90262 17.4019 4.90262C18.674 4.90262 19.6662 5.22999 20.3785 5.88474C21.1418 6.58985 21.5234 7.42087 21.5234 8.37781V15.4037C21.5234 16.5621 21.1672 17.4435 20.4549 18.0479C19.6407 18.753 18.5976 19.1056 17.3256 19.1056C16.0535 19.1056 15.0104 18.753 14.1963 18.0479C13.433 17.3932 13.0514 16.4866 13.0514 15.3282V8.30226ZM16.1044 15.5548C16.1044 15.9577 16.2061 16.2599 16.4097 16.4614C16.5114 16.5621 16.6259 16.6377 16.7531 16.688C16.8803 16.7384 17.0712 16.7636 17.3256 16.7636C17.6817 16.7636 17.987 16.6377 18.2415 16.3858C18.445 16.2348 18.5468 15.9577 18.5468 15.5548V8.22671C18.5468 7.92452 18.445 7.69788 18.2415 7.54678C18.0379 7.34532 17.7326 7.24459 17.3256 7.24459C16.9185 7.24459 16.6132 7.34532 16.4097 7.54678C16.2061 7.69788 16.1044 7.92452 16.1044 8.22671V15.5548ZM32.2851 5.20481V18.7278H29.3084V17.2169C28.8505 17.7709 28.2908 18.199 27.6293 18.5012C27.0696 18.8034 26.5099 18.9545 25.9502 18.9545C25.3396 18.9545 24.8308 18.753 24.4237 18.3501C24.0675 17.8464 23.8894 17.2421 23.8894 16.5369V5.20481H26.8661V15.5548C26.8661 15.9577 26.917 16.1844 27.0187 16.2348C27.1714 16.3858 27.3749 16.4614 27.6293 16.4614C27.782 16.4614 28.0618 16.3858 28.4689 16.2348C28.8759 15.9326 29.1558 15.6807 29.3084 15.4793V5.20481H32.2851ZM8.92992 19.1056H0V21.4475H2.97664V35.6505H5.87695V21.4475H8.92992V19.1056ZM14.8832 32.7041C14.6797 33.0063 14.3998 33.233 14.0436 33.3841C13.7892 33.5351 13.5602 33.6107 13.3567 33.6107C13.2041 33.6107 13.026 33.5603 12.8224 33.4596C12.7207 33.2581 12.6698 33.0315 12.6698 32.7797V23.4118H10.0748V33.6862C10.0748 34.3914 10.2274 34.9202 10.5327 35.2727C10.838 35.6757 11.296 35.8771 11.9066 35.8771C12.4154 35.8771 12.8988 35.726 13.3567 35.4238C13.9164 35.172 14.4253 34.7943 14.8832 34.2906V35.6505H17.4782V23.4118H14.8832V32.7041ZM26.2555 24.0162C25.7467 23.5125 25.1106 23.2607 24.3474 23.2607C23.9403 23.2607 23.5333 23.3614 23.1262 23.5629C22.8718 23.6636 22.5156 23.9406 22.0577 24.3939V19.1056H19.4626V35.6505H22.0577V34.7439C22.2103 34.9454 22.3757 35.1091 22.5538 35.235C22.7319 35.3609 22.9227 35.4742 23.1262 35.5749C23.5841 35.726 24.0421 35.8016 24.5 35.8016C25.2633 35.8016 25.8484 35.5749 26.2555 35.1216C26.6625 34.7187 26.8661 34.064 26.8661 33.1574V26.3581C26.8661 25.3508 26.6625 24.5702 26.2555 24.0162ZM24.1947 32.7797C24.1947 33.1826 24.1184 33.4596 23.9658 33.6107C23.8131 33.8122 23.5841 33.9129 23.2788 33.9129C23.1771 33.9129 22.9735 33.8625 22.6683 33.7618C22.5156 33.7114 22.3121 33.5603 22.0577 33.3085V25.6782C22.2103 25.5271 22.3884 25.4012 22.5919 25.3005C22.6937 25.2501 22.8718 25.2249 23.1262 25.2249C23.4824 25.2249 23.7622 25.3256 23.9658 25.5271C24.1184 25.7789 24.1947 26.1063 24.1947 26.5092V32.7797ZM35.8723 29.8333V26.7359C35.8723 25.6278 35.567 24.7213 34.9564 24.0162C34.2441 23.4118 33.3282 23.1096 32.2088 23.1096C30.9876 23.1096 30.0462 23.437 29.3848 24.0917C28.6215 24.7968 28.2399 25.6782 28.2399 26.7359V32.1753C28.2399 33.2833 28.5706 34.2151 29.2321 34.9706C29.9445 35.6757 30.8604 36.0282 31.9798 36.0282C33.2519 36.0282 34.2186 35.7008 34.8801 35.0461C35.5416 34.4417 35.8723 33.4848 35.8723 32.1753V31.5709H33.201V32.1753C33.201 32.8804 33.1246 33.3337 32.972 33.5351C32.7685 33.7366 32.4632 33.8373 32.0561 33.8373C31.649 33.8373 31.3438 33.7114 31.1402 33.4596C30.9876 33.2581 30.9113 32.83 30.9113 32.1753V29.8333H35.8723ZM30.9113 26.6603C30.9113 26.1567 31.013 25.8041 31.2165 25.6027C31.3692 25.3508 31.649 25.2249 32.0561 25.2249C32.4123 25.2249 32.7176 25.3508 32.972 25.6027C33.1246 25.8545 33.201 26.207 33.201 26.6603V27.9446H30.9113V26.6603Z" fill="#F8F9FA"/>
</svg>
