<svg width="37" height="36" viewBox="0 0 37 36" fill="none" xmlns="http://www.w3.org/2000/svg">
<path d="M32.4598 15.5179H29.3634C29.6152 16.415 29.741 17.312 29.741 18.209C29.741 19.7041 29.4515 21.1244 28.8725 22.4699C28.2935 23.8154 27.5006 24.9866 26.4936 25.9833C25.4867 26.98 24.3035 27.7649 22.9442 28.338C21.5848 28.9111 20.1499 29.1976 18.6395 29.1976C17.1291 29.1976 15.7068 28.9111 14.3726 28.338C13.0384 27.7649 11.8678 26.98 10.8609 25.9833C9.85392 24.9866 9.06095 23.8154 8.48196 22.4699C7.90297 21.1244 7.61347 19.7041 7.61347 18.209C7.61347 17.312 7.73934 16.415 7.99107 15.5179H4.8192V30.5432C4.8192 30.9418 4.95766 31.2658 5.23457 31.5149C5.51148 31.7641 5.85132 31.8887 6.2541 31.8887H31.1004C31.5032 31.8887 31.8304 31.7641 32.0822 31.5149C32.3339 31.2658 32.4598 30.9418 32.4598 30.5432V15.5179ZM32.4598 5.94964C32.4598 5.55096 32.3339 5.21458 32.0822 4.94048C31.8304 4.66639 31.5032 4.52935 31.1004 4.52935H26.9468C26.544 4.52935 26.2167 4.66639 25.965 4.94048C25.7133 5.21458 25.5874 5.55096 25.5874 5.94964V9.98627C25.5874 10.3849 25.7133 10.7213 25.965 10.9954C26.2167 11.2695 26.544 11.4066 26.9468 11.4066H31.1004C31.5032 11.4066 31.8304 11.2695 32.0822 10.9954C32.3339 10.7213 32.4598 10.3849 32.4598 9.98627V5.94964ZM18.6395 11.4066C16.7263 11.4066 15.1026 12.0669 13.7684 13.3875C12.4342 14.7081 11.7671 16.3153 11.7671 18.209C11.7671 19.1559 11.9433 20.0529 12.2958 20.9001C12.6482 21.7473 13.1391 22.4824 13.7684 23.1053C14.3977 23.7282 15.1278 24.2141 15.9585 24.563C16.7892 24.9118 17.6829 25.0862 18.6395 25.0862C19.5961 25.0862 20.5023 24.9118 21.3582 24.563C22.2141 24.2141 22.9568 23.7282 23.5861 23.1053C24.2154 22.4824 24.7063 21.7473 25.0587 20.9001C25.4112 20.0529 25.5874 19.1559 25.5874 18.209C25.5874 17.2622 25.4112 16.3776 25.0587 15.5553C24.7063 14.733 24.2154 14.0104 23.5861 13.3875C22.9568 12.7646 22.2141 12.2787 21.3582 11.9298C20.5023 11.581 19.5961 11.4066 18.6395 11.4066ZM4.8192 36.0001C3.66122 36.0001 2.69204 35.6014 1.91166 34.804C1.13128 34.0067 0.741089 33.0349 0.741089 31.8887V4.52935C0.741089 3.38314 1.13128 2.41136 1.91166 1.61401C2.69204 0.816648 3.66122 0.417969 4.8192 0.417969H32.4598C33.6178 0.417969 34.5995 0.816648 35.4051 1.61401C36.2106 2.41136 36.6134 3.38314 36.6134 4.52935V31.8887C36.6134 33.0349 36.2106 34.0067 35.4051 34.804C34.5995 35.6014 33.6178 36.0001 32.4598 36.0001H4.8192Z" fill="#F8F9FA"/>
</svg>
